<svg width="11" height="9" viewBox="0 0 11 9" fill="none" xmlns="http://www.w3.org/2000/svg">
<ellipse cx="1.70138" cy="1.8998" rx="1.70138" ry="1.78228" fill="#5F6369"/>
<ellipse cx="1.70138" cy="6.83534" rx="1.70138" ry="1.78228" fill="#5F6369"/>
<path fill-rule="evenodd" clip-rule="evenodd" d="M4.9295 0.940131C4.9295 0.440922 5.33419 0.0362337 5.8334 0.0362337H8.55544L8.55544 0.940131C8.55544 0.0362337 8.55598 0.0362339 8.55654 0.0362343L8.55767 0.0362363L8.56006 0.036245L8.56531 0.0362832L8.57765 0.0364662C8.58667 0.0366439 8.59732 0.036945 8.60948 0.0374397C8.63377 0.0384276 8.66427 0.0401945 8.70013 0.0433205C8.77154 0.0495445 8.86606 0.0613192 8.97633 0.0837469C9.19375 0.127965 9.49177 0.217545 9.79662 0.403551C10.4642 0.810874 11.0001 1.58113 11.0001 2.82034C11.0001 3.31955 10.5954 3.72424 10.0962 3.72424C9.597 3.72424 9.19231 3.31955 9.19231 2.82034C9.19231 2.17934 8.95784 2.0095 8.85503 1.94677C8.77468 1.89775 8.68751 1.86981 8.61603 1.85527C8.58186 1.84832 8.55601 1.84541 8.54315 1.84429C8.54198 1.84418 8.54094 1.8441 8.54003 1.84403H5.8334C5.33419 1.84403 4.9295 1.43934 4.9295 0.940131Z" fill="#FABD05"/>
<path fill-rule="evenodd" clip-rule="evenodd" d="M10.0962 1.91644C10.5954 1.91644 11.0001 2.32113 11.0001 2.82034C11.0001 3.47094 10.8404 4.01977 10.5444 4.46024C10.2509 4.89713 9.8639 5.16718 9.5044 5.33097C9.15008 5.4924 8.80856 5.55764 8.56518 5.58475C8.44106 5.59857 8.33574 5.6032 8.25791 5.60422C8.21882 5.60473 8.18617 5.60433 8.161 5.60367C8.15492 5.60351 8.14927 5.60333 8.14406 5.60315H5.8334C5.33419 5.60315 4.9295 5.19846 4.9295 4.69925C4.9295 4.20004 5.33419 3.79535 5.8334 3.79535H8.19051L8.20985 3.79653C8.21378 3.79661 8.22215 3.79673 8.23438 3.79658C8.26227 3.79621 8.30797 3.79442 8.36508 3.78806C8.48416 3.7748 8.62593 3.74463 8.75489 3.68587C8.87867 3.62948 8.97498 3.55457 9.04389 3.45201C9.1104 3.35303 9.19231 3.16791 9.19231 2.82034C9.19231 2.32113 9.597 1.91644 10.0962 1.91644Z" fill="#34A853"/>
<rect x="4.26276" width="2.24358" height="8.77432" rx="1.04451" fill="#5F6369"/>
</svg>
