<svg width="29" height="26" viewBox="0 0 29 26" fill="none" xmlns="http://www.w3.org/2000/svg">
<path d="M14.4444 20.9444C16.25 20.9444 17.7847 20.3125 19.0486 19.0486C20.3125 17.7847 20.9444 16.25 20.9444 14.4444C20.9444 12.6389 20.3125 11.1042 19.0486 9.84028C17.7847 8.57639 16.25 7.94444 14.4444 7.94444C12.6389 7.94444 11.1042 8.57639 9.84028 9.84028C8.57639 11.1042 7.94444 12.6389 7.94444 14.4444C7.94444 16.25 8.57639 17.7847 9.84028 19.0486C11.1042 20.3125 12.6389 20.9444 14.4444 20.9444ZM14.4444 18.0556C13.4333 18.0556 12.5787 17.7065 11.8806 17.0083C11.1824 16.3102 10.8333 15.4556 10.8333 14.4444C10.8333 13.4333 11.1824 12.5787 11.8806 11.8806C12.5787 11.1824 13.4333 10.8333 14.4444 10.8333C15.4556 10.8333 16.3102 11.1824 17.0083 11.8806C17.7065 12.5787 18.0556 13.4333 18.0556 14.4444C18.0556 15.4556 17.7065 16.3102 17.0083 17.0083C16.3102 17.7065 15.4556 18.0556 14.4444 18.0556ZM2.88889 26C2.09444 26 1.41435 25.7171 0.848611 25.1514C0.28287 24.5856 0 23.9056 0 23.1111V5.77778C0 4.98333 0.28287 4.30324 0.848611 3.7375C1.41435 3.17176 2.09444 2.88889 2.88889 2.88889H7.43889L10.1111 0H18.7778L21.45 2.88889H26C26.7944 2.88889 27.4745 3.17176 28.0403 3.7375C28.606 4.30324 28.8889 4.98333 28.8889 5.77778V23.1111C28.8889 23.9056 28.606 24.5856 28.0403 25.1514C27.4745 25.7171 26.7944 26 26 26H2.88889ZM2.88889 23.1111H26V5.77778H20.15L17.5139 2.88889H11.375L8.73889 5.77778H2.88889V23.1111Z" fill="#D9E3F2"/>
</svg>
