<svg width="35" height="35" viewBox="0 0 35 35" fill="none" xmlns="http://www.w3.org/2000/svg">
<path d="M13.125 26.25C12.3229 26.25 11.6363 25.9644 11.0651 25.3932C10.4939 24.822 10.2083 24.1354 10.2083 23.3333V5.83329C10.2083 5.03121 10.4939 4.34458 11.0651 3.7734C11.6363 3.20222 12.3229 2.91663 13.125 2.91663H26.25C27.0521 2.91663 27.7387 3.20222 28.3099 3.7734C28.8811 4.34458 29.1667 5.03121 29.1667 5.83329V23.3333C29.1667 24.1354 28.8811 24.822 28.3099 25.3932C27.7387 25.9644 27.0521 26.25 26.25 26.25H13.125ZM13.125 23.3333H26.25V5.83329H13.125V23.3333ZM7.29167 32.0833C6.48958 32.0833 5.80295 31.7977 5.23177 31.2265C4.66059 30.6553 4.375 29.9687 4.375 29.1666V8.74996H7.29167V29.1666H23.3333V32.0833H7.29167Z" fill="#D9E3F2"/>
</svg>
