<svg width="30" height="30" viewBox="0 0 30 30" fill="none" xmlns="http://www.w3.org/2000/svg">
<path fill-rule="evenodd" clip-rule="evenodd" d="M13.4343 23.5105C14.2134 25.2872 14.603 27.1856 14.603 29.2057C14.603 27.1856 14.98 25.2872 15.7346 23.5105C16.5131 21.7339 17.5597 20.1884 18.8738 18.8742C20.1885 17.5599 21.7336 16.5255 23.5103 15.7711C25.287 14.9922 27.1857 14.6029 29.2054 14.6029C27.1857 14.6029 25.287 14.2256 23.5103 13.4711C21.7336 12.6923 20.1885 11.6458 18.8738 10.3315C17.5597 9.01725 16.5131 7.47179 15.7346 5.6951C14.98 3.91842 14.603 2.02006 14.603 0C14.603 2.02006 14.2134 3.91842 13.4343 5.6951C12.6803 7.47179 11.6456 9.01725 10.3315 10.3315C9.01742 11.6458 7.47174 12.6923 5.69506 13.4711C3.91838 14.2256 2.02022 14.6029 0 14.6029C2.02022 14.6029 3.91838 14.9922 5.69506 15.7711C7.47174 16.5255 9.01742 17.5599 10.3315 18.8742C11.6456 20.1884 12.6803 21.7339 13.4343 23.5105Z" fill="url(#paint0_linear_145_35)"/>
<defs>
<linearGradient id="paint0_linear_145_35" x1="25.6992" y1="-8.22375" x2="-11.8922" y2="4.87734" gradientUnits="userSpaceOnUse">
<stop offset="0.005" stop-color="white"/>
<stop offset="0.855" stop-color="#569EFF"/>
<stop offset="1" stop-color="#3781E4"/>
</linearGradient>
</defs>
</svg>
